<svg width="450" height="80" viewBox="0 0 450 80" fill="none" xmlns="http://www.w3.org/2000/svg">
<path d="M156.637 13.9949V35.2698H163.457C165.341 35.2698 167.036 34.7854 168.543 33.8165C169.969 32.8745 171.085 31.6096 171.893 30.0217C172.7 28.4338 173.103 26.6979 173.103 24.814C173.103 22.8494 172.72 21.0462 171.953 19.4045C171.186 17.7628 170.09 16.4575 168.664 15.4886C167.13 14.4928 165.368 13.9949 163.377 13.9949H156.637ZM149.937 13.9949L148 9.55421H163.336C166 9.55421 168.435 10.2405 170.641 11.6131C172.767 12.9318 174.449 14.735 175.686 17.0226C176.924 19.3103 177.543 21.7997 177.543 24.4911C177.543 26.5096 177.146 28.5079 176.352 30.486C175.558 32.4641 174.462 34.1933 173.063 35.6735C171.718 37.1268 170.278 38.163 168.745 38.782C167.265 39.3741 165.502 39.6701 163.457 39.6701H152.318V13.9949H149.937ZM189.798 13.9545V23.9663C190.632 23.4818 191.56 23.1589 192.583 22.9974C193.336 22.8628 194.305 22.7955 195.488 22.7955H201.219C202.807 22.7955 204.044 22.4322 204.932 21.7055C205.874 20.9251 206.345 19.7543 206.345 18.1934C206.345 16.7131 205.847 15.6097 204.852 14.883C203.991 14.264 202.78 13.9545 201.219 13.9545H189.798ZM202.672 34.9065L199 27.1958H195.488C194.385 27.1958 193.417 27.2631 192.583 27.3977C191.56 27.5861 190.632 27.909 189.798 28.3666V39.6701H185.399V9.55421H201.219C203.076 9.55421 204.717 9.90409 206.143 10.6038C207.569 11.3036 208.672 12.2994 209.453 13.5912C210.287 14.9638 210.704 16.5786 210.704 18.4356C210.704 20.6963 210.098 22.5533 208.888 24.0066C207.677 25.4599 205.968 26.4692 203.762 27.0344L206.103 31.8384C206.775 32.8342 207.3 33.5339 207.677 33.9376C208.134 34.449 208.571 34.7921 208.988 34.967C209.405 35.142 209.95 35.2294 210.623 35.2294H211.067L212.036 35.1891V39.6701C210.475 39.6701 209.318 39.6163 208.565 39.5086C207.3 39.2933 206.224 38.8762 205.336 38.2572C204.287 37.5036 203.399 36.3867 202.672 34.9065ZM224.613 39.6701H220.295V9.55421H224.613V39.6701ZM235.375 13.793L231.864 9.55421H237.554L256.886 32.565V9.55421H261.326V39.6701H256.967L239.694 18.9604V39.6701H235.375V13.793ZM283.711 27.5995L275.599 39.6701H271.2V9.55421H275.599V32.0402L290.895 9.55421H296.182L286.294 23.724L291.702 31.8384C292.563 33.1302 293.411 34.0453 294.245 34.5835C294.917 35.0141 295.63 35.2294 296.384 35.2294L297.635 35.1891V39.6701H296.828C295.482 39.697 294.5 39.6432 293.881 39.5086C292.886 39.3472 291.971 38.9435 291.137 38.2976C290.195 37.544 289.24 36.4136 288.272 34.9065L283.711 27.5995ZM343.212 13.4297L340.387 16.74C339.284 15.6097 337.966 14.7216 336.432 14.0756C334.898 13.4297 333.284 13.1068 331.589 13.1068C329.383 13.1068 327.371 13.6047 325.555 14.6004C323.739 15.5962 322.32 16.9554 321.297 18.6778C320.248 20.481 319.723 22.486 319.723 24.6929C319.723 26.7921 320.288 28.7299 321.418 30.5062C322.495 32.1748 323.941 33.5003 325.757 34.4826C327.573 35.4649 329.531 35.9561 331.629 35.9561C333.109 35.9561 334.528 35.7004 335.887 35.1891C337.246 34.6777 338.463 33.9645 339.54 33.0495V27.5592H335.665L333.768 23.1992H343.898V34.9065C342.365 36.6289 340.528 37.9679 338.389 38.9233C336.25 39.8787 333.983 40.3564 331.589 40.3564C328.602 40.3564 325.858 39.6298 323.356 38.1764C320.907 36.777 318.983 34.8527 317.584 32.4036C316.131 29.9006 315.405 27.1555 315.405 24.1681C315.405 21.2884 316.172 18.6374 317.705 16.2152C319.158 13.9007 321.129 12.0639 323.618 10.7048C326.107 9.34564 328.777 8.66608 331.629 8.66608C333.862 8.66608 335.988 9.09669 338.006 9.95791C339.97 10.7653 341.705 11.9226 343.212 13.4297ZM365.476 40.3564C362.651 40.3564 360.223 39.8652 358.191 38.8829C356.16 37.9006 354.613 36.4809 353.55 34.6239C352.487 32.7669 351.956 30.5465 351.956 27.9629V9.55421H356.315V27.9629C356.315 30.5465 357.108 32.5247 358.696 33.8972C360.283 35.2698 362.543 35.9561 365.476 35.9561C368.409 35.9561 370.669 35.2698 372.257 33.8972C373.844 32.5247 374.638 30.5465 374.638 27.9629V9.55421H378.996V27.9629C378.996 30.5465 378.465 32.7669 377.402 34.6239C376.34 36.4809 374.792 37.9006 372.761 38.8829C370.73 39.8652 368.301 40.3564 365.476 40.3564ZM392.866 13.9545V23.9663C393.7 23.4818 394.628 23.1589 395.651 22.9974C396.404 22.8628 397.373 22.7955 398.556 22.7955H404.287C405.875 22.7955 407.113 22.4322 408 21.7055C408.942 20.9251 409.413 19.7543 409.413 18.1934C409.413 16.7131 408.915 15.6097 407.92 14.883C407.059 14.264 405.848 13.9545 404.287 13.9545H392.866ZM405.74 34.9065L402.068 27.1958H398.556C397.453 27.1958 396.485 27.2631 395.651 27.3977C394.628 27.5861 393.7 27.909 392.866 28.3666V39.6701H388.467V9.55421H404.287C406.144 9.55421 407.785 9.90409 409.211 10.6038C410.637 11.3036 411.74 12.2994 412.521 13.5912C413.355 14.9638 413.772 16.5786 413.772 18.4356C413.772 20.6963 413.166 22.5533 411.956 24.0066C410.745 25.4599 409.036 26.4692 406.83 27.0344L409.171 31.8384C409.844 32.8342 410.368 33.5339 410.745 33.9376C411.202 34.449 411.639 34.7921 412.057 34.967C412.474 35.142 413.018 35.2294 413.691 35.2294H414.135L415.104 35.1891V39.6701C413.543 39.6701 412.386 39.6163 411.633 39.5086C410.368 39.2933 409.292 38.8762 408.404 38.2572C407.355 37.5036 406.467 36.3867 405.74 34.9065ZM436.48 40.3564C433.655 40.3564 431.226 39.8652 429.195 38.8829C427.164 37.9006 425.616 36.4809 424.554 34.6239C423.491 32.7669 422.96 30.5465 422.96 27.9629V9.55421H427.318V27.9629C427.318 30.5465 428.112 32.5247 429.699 33.8972C431.287 35.2698 433.547 35.9561 436.48 35.9561C439.412 35.9561 441.673 35.2698 443.26 33.8972C444.848 32.5247 445.641 30.5465 445.641 27.9629V9.55421H450V27.9629C450 30.5465 449.469 32.7669 448.406 34.6239C447.343 36.4809 445.796 37.9006 443.765 38.8829C441.733 39.8652 439.305 40.3564 436.48 40.3564Z" fill="white"/>
<path d="M194.195 78.7153L192.7 74.4735H184.063L182.569 78.7153H178.2L185.77 58.1475H190.993L198.563 78.7153H194.195ZM185.314 70.9008H191.448L188.388 62.1754L185.314 70.9008ZM204.454 78.7153V58.1475H208.723V78.7153H204.454ZM234.039 79C229.627 79 226.184 76.8791 225.558 73.0216L229.969 72.011C230.253 74.3169 231.947 75.5125 234.209 75.5125C235.946 75.5125 237.326 74.7439 237.312 73.0073C237.297 71.0715 235.021 70.4594 232.516 69.6907C229.499 68.7513 226.269 67.6409 226.269 63.8547C226.269 60.0257 229.4 57.8622 233.527 57.8622C237.141 57.8622 240.784 59.3284 241.609 63.2711L237.483 64.296C237.098 62.2462 235.718 61.3495 233.783 61.3495C232.061 61.3495 230.595 62.0612 230.595 63.7551C230.595 65.3351 232.616 65.8617 234.95 66.5592C238.052 67.4986 241.723 68.6942 241.723 72.7936C241.723 77.1634 238.066 79 234.039 79ZM257.576 79C251.528 79 247.059 74.8722 247.059 68.424C247.059 61.9617 251.528 57.8623 257.576 57.8623C263.609 57.8623 268.077 61.9617 268.077 68.424C268.077 74.872 263.609 79 257.576 79ZM257.576 75.0857C261.119 75.0857 263.837 72.5947 263.837 68.4241C263.837 64.2677 261.119 61.791 257.576 61.791C254.032 61.791 251.314 64.2677 251.314 68.4241C251.314 72.5947 254.032 75.0857 257.576 75.0857ZM298.374 78.7153H294.119L292.767 63.2141L287.559 78.7153H284.798L279.59 63.2141L278.224 78.7153H273.955L275.676 58.1475H281.767L286.15 71.0578L290.59 58.1475H296.68L298.374 78.7153ZM329.21 78.7153H324.956L323.604 63.2141L318.396 78.7153H315.635L310.427 63.2141L309.061 78.7153H304.791L306.513 58.1475H312.604L316.987 71.0578L321.427 58.1475H327.517L329.21 78.7153ZM348.407 61.9052H340.78V66.5739H347.539V70.289H340.78V74.9436H348.407V78.7156H336.482V58.1478H348.407V61.9052ZM359.877 74.9433H366.323V78.7153H355.608V58.1475H359.877V74.9433ZM372.385 78.7153V58.1475H376.654V78.7153H372.385ZM396.691 61.9052H389.063V66.5739H395.823V70.289H389.063V74.9436H396.691V78.7156H384.766V58.1478H396.691V61.9052ZM414.748 78.7153L409.398 69.6625H408.16V78.7153H403.891V58.1475H411.347C416.001 58.1475 417.964 60.8948 417.964 64.2967C417.964 67.0581 416.399 68.8517 413.61 69.4495L419.8 78.7159L414.748 78.7153ZM408.16 61.6909V66.6016H410.679C412.956 66.6016 413.881 65.6337 413.881 64.1533C413.881 62.6871 412.956 61.6908 410.679 61.6908L408.16 61.6909Z" fill="url(#paint0_linear_0_1)"/>
<path d="M117.466 17.852C117.593 18.1503 117.813 18.4358 117.825 18.7301C117.958 21.8891 117.284 24.7777 115.217 27.3088C113.445 29.4795 111.159 30.7857 108.617 31.7536C106.896 32.4086 105.124 32.8245 103.27 32.8693C102.34 32.8916 101.404 33.1124 100.485 33.0502C97.9223 32.8769 95.3461 32.7538 92.923 31.7215C89.4265 30.232 87.1523 27.7012 86.0896 24.0378C85.4566 21.8555 85.5884 19.6782 85.8943 17.4832C85.979 16.8742 86.2934 16.4022 86.9049 16.2647C88.1387 15.987 89.3756 15.6577 90.6286 15.5482C92.0433 15.4247 93.4866 15.4167 94.9001 15.5469C96.4899 15.6933 98.0645 16.0277 99.6382 16.3201C102.532 16.8577 105.415 17.4542 108.312 17.9695C110.611 18.3784 112.941 18.2406 115.259 18.2C115.957 18.1877 116.651 17.9862 117.466 17.852ZM114.124 76.7827C112.828 76.6421 111.53 76.5115 110.242 76.3222C108.714 76.0979 107.245 75.6561 105.91 74.8577C105.401 74.5531 104.832 74.2549 104.476 73.8063C103.676 72.7977 103.097 71.6617 103.203 70.2988C103.221 70.0763 103.198 69.8485 103.175 69.6252C103.041 68.3665 102.784 67.1086 102.783 65.8502C102.777 60.8362 102.568 55.8162 103.189 50.8158C103.478 48.4868 103.594 46.1356 103.904 43.8099C104.209 41.5239 105.027 39.4271 106.98 38.0183C108.769 36.7284 110.639 35.5523 112.459 34.3051C113.969 33.2701 115.562 32.3242 116.933 31.127C119.477 28.9062 120.816 26.0529 120.779 22.6181C120.765 21.3421 120.848 20.0606 120.756 18.7912C120.643 17.2334 120.472 15.6706 120.184 14.1366C119.582 10.9262 118.419 7.87706 117.32 4.81437C116.916 3.68782 116.489 2.56612 115.998 1.47546C115.561 0.504302 114.954 0.430201 114.01 1.19892C114.535 2.72367 115.074 4.27563 115.604 5.83076C116.413 8.20317 117.285 10.5569 117.996 12.9585C118.449 14.4903 118.808 16.0818 118.936 17.6686C119.067 19.2962 119.06 20.9463 118.783 22.5947C118.156 26.3265 116.353 29.2969 113.316 31.5232C109.926 34.0071 105.988 34.7894 101.92 35.0923C101.001 35.1607 100.064 34.9548 99.1341 34.9044C97.0949 34.7937 95.1494 34.2747 93.2835 33.4879C91.6958 32.8185 90.1291 32.067 88.8076 30.9366C86.6813 29.1178 85.186 26.8977 84.4166 24.1582C83.8063 21.985 83.6965 19.7925 83.9047 17.5952C84.1131 15.3955 84.8731 13.3003 85.5544 11.2053C86.5969 7.99956 87.6847 4.80869 88.7492 1.61015C88.8171 1.40637 88.8508 1.19107 88.9094 0.9429C88.5373 0.835587 88.2208 0.744295 87.9712 0.672363C87.2714 0.878979 86.893 1.25166 86.686 1.89904C86.4018 2.78743 85.9909 3.63492 85.644 4.50394C84.4914 7.39173 83.5181 10.3338 82.928 13.3944C82.6243 14.9693 82.3892 16.5483 82.2209 18.1469C81.9921 20.3192 81.9015 22.4792 82.3137 24.6211C82.5668 25.9368 82.9692 27.2123 83.7145 28.3831C84.9499 30.3239 86.6254 31.7743 88.5 33.034C90.7364 34.5369 93.0117 35.9838 95.2138 37.5351C96.763 38.6266 98.0308 39.9865 98.6146 41.8757C99.1835 43.7166 99.0936 45.6394 99.3794 47.5151C99.5307 48.5085 99.5569 49.5209 99.6379 50.5249C99.7817 52.3082 100.044 54.092 100.041 55.8751C100.036 59.0182 100.23 62.1632 99.876 65.309C99.6721 67.1228 99.8601 68.9638 99.6552 70.7995C99.4393 72.7328 98.5755 74.108 96.8857 74.9881C95.336 75.795 93.6241 76.04 91.9316 76.3249C90.7936 76.5165 89.642 76.6245 88.5018 76.8029C87.8971 76.8975 87.4308 77.2248 87.1188 77.8076C87.7448 77.9191 88.2892 78.0537 88.8417 78.1075C90.5851 78.2769 92.3292 78.4511 94.0771 78.5569C96.0165 78.6744 97.9605 78.7787 99.9025 78.7779C101.807 78.7771 103.709 78.8725 105.621 78.617C107.166 78.4106 108.75 78.592 110.32 78.3747C112.085 78.1303 113.874 78.0603 115.691 77.9112C115.338 77.143 114.907 76.8675 114.124 76.7827Z" fill="url(#paint1_linear_0_1)"/>
<path d="M58.5569 6.56158C61.4896 3.89459 65.0739 4.13225 67.7244 6.50433C69.6928 8.26574 70.8996 10.4861 71.6459 12.9744C72.4068 15.5112 72.8284 18.1135 72.7024 20.7642C72.5154 24.6969 71.6758 28.4666 69.5875 31.8749C68.3963 33.8189 66.8807 35.4034 64.7323 36.3056C62.4578 37.2609 59.78 36.7614 57.913 34.9427C58.1047 34.903 58.236 34.8508 58.3667 34.8525C60.2234 34.8758 61.6041 33.9709 62.751 32.6111C64.6392 30.372 65.5924 27.7023 66.0925 24.8848C66.4093 23.0995 66.6076 21.2597 66.5638 19.4514C66.4881 16.3179 65.9635 13.2405 64.4282 10.433C64.118 9.86593 63.7723 9.3075 63.3692 8.80431C62.1962 7.34048 60.7313 6.41437 58.5569 6.56158ZM52.0996 74.8146C53.5976 74.6034 54.9387 73.9049 56.0933 72.8722C58.0852 71.0907 59.3988 68.8663 60.2496 66.3814C61.3326 63.2184 61.8116 59.9697 61.5769 56.5955C61.4205 54.349 61.0526 52.1767 60.2788 50.0756C59.5133 47.9971 58.4506 46.0867 56.7539 44.6118C54.4063 42.571 51.7234 41.9587 48.8023 43.623C48.399 43.8528 48.029 44.1408 47.4797 44.5128C48.2777 44.618 48.8464 44.632 49.3808 44.7745C51.1971 45.2592 52.321 46.5835 53.22 48.1214C55.0599 51.2694 55.4384 54.7762 55.5441 58.3132C55.5836 59.635 55.3422 60.973 55.1515 62.2925C54.7647 64.9678 53.9633 67.5016 52.3946 69.7442C51.0847 71.6168 49.5051 73.0491 46.9862 73.0504C48.4499 74.4325 50.1672 75.0872 52.0996 74.8146ZM70.2502 74.6279C70.9959 74.7644 71.7871 74.8862 72.5244 74.7806C73.8173 74.5955 74.9727 74.0252 76.0376 73.2223C77.4343 72.169 78.4549 70.8275 79.2871 69.3303C80.6813 66.8222 81.4797 64.1342 81.8238 61.2729C82.2668 57.5884 82.0095 53.9916 80.8138 50.4845C79.9365 47.9112 78.6174 45.61 76.3536 43.9691C73.812 42.1271 70.4988 42.2294 67.9585 44.5362C68.1479 44.5696 68.2936 44.6233 68.4362 44.616C69.6305 44.5544 70.629 44.9666 71.5707 45.7036C72.9363 46.7726 73.7257 48.2139 74.3939 49.7427C75.2954 51.8053 75.7144 54.0025 75.8525 56.2257C76.0913 60.0683 75.6985 63.8481 74.0873 67.3997C73.5886 68.499 72.9602 69.567 72.2316 70.5283C71.0221 72.1243 69.4035 73.0576 67.279 73.0115C68.1311 73.8827 69.1208 74.4211 70.2502 74.6279ZM50.2688 61.669C49.7474 60.816 48.8133 60.6576 48.1066 61.3022C46.7936 62.4996 46.6721 66.0083 47.899 67.2937C48.646 68.0764 49.3761 68.0212 50.028 67.1345C50.6594 66.2758 50.8666 65.3038 50.8015 64.4221C50.8057 63.2017 50.6023 62.2149 50.2688 61.669ZM70.8297 61.5505C70.2777 60.4441 69.2199 60.4338 68.5737 61.5014C68.2841 61.9799 68.0415 62.525 67.9375 63.0704C67.6881 64.3807 67.771 65.6746 68.6415 66.7751C69.2037 67.4859 69.7375 67.491 70.396 66.8788C71.2757 66.0613 71.3182 64.9396 71.5572 63.6854C71.3526 63.0654 71.1844 62.2613 70.8297 61.5505ZM58.9088 28.167C59.0774 28.7566 59.5163 29.1338 60.1293 29.2234C60.7491 29.314 61.139 28.8895 61.3923 28.4312C62.2504 26.8789 62.2985 25.2563 61.5934 23.6383C61.364 23.1121 60.9675 22.6489 60.31 22.6644C59.6588 22.6798 59.2625 23.1528 59.0588 23.6817C58.7726 24.4242 58.6181 25.2174 58.4154 25.9593C58.5901 26.7585 58.7105 27.4739 58.9088 28.167ZM6.76697 51.3559C8.79753 44.4067 12.8568 39.5808 13.609 38.7279C13.5129 38.7386 13.4163 38.7481 13.3202 38.7591C11.0724 39.0163 8.97823 39.634 7.17725 41.1267C5.38562 42.6117 4.05115 44.4326 3.02402 46.4732C0.416824 51.6523 -0.492008 57.141 0.249139 62.8935C0.784895 67.052 2.28137 70.81 5.00119 74.0377C6.57075 75.9005 8.50004 77.1799 10.9514 77.5402C11.4024 77.6065 11.8532 77.6731 12.3042 77.7396C9.09019 73.5778 7.0064 69.2035 6.10441 64.6978C5.23128 60.3372 5.45419 55.8482 6.76697 51.3559ZM25.4216 51.2461C23.3682 58.1892 22.9477 68.6744 32.4031 79.4628C32.5029 79.4613 32.6025 79.4613 32.7023 79.459C34.2238 79.4224 35.7438 79.3161 37.2636 79.2055C33.3725 74.6052 30.9023 69.7028 29.9212 64.6133C29.0721 60.2088 29.3283 55.6589 30.6824 51.09C32.6165 44.5636 36.2819 39.8451 37.4328 38.4722H32.3524C31.7564 39.1467 27.5361 44.0963 25.4216 51.2461ZM11.7458 64.6123C10.9144 60.2077 11.195 55.6576 12.5802 51.0883C14.534 44.6432 18.1763 39.9616 19.3882 38.524L14.0258 38.993C13.4673 39.6173 9.2874 44.4539 7.23014 51.5106C5.3404 57.9921 4.93412 67.6492 13.0018 77.8424C14.859 78.1158 16.7171 78.3829 18.5779 78.628C14.965 74.1955 12.6664 69.49 11.7458 64.6123ZM19.9606 37.9861C19.9638 37.9859 19.9665 37.9842 19.9696 37.9842H22.0661C17.5353 25.2431 18.7475 15.394 20.5778 9.35807C21.55 6.15218 22.7944 3.65477 23.8224 1.92657C23.4415 1.98632 23.0607 2.04807 22.6798 2.10765C21.0231 2.36684 19.6306 3.1691 18.3524 4.19868C16.4516 5.72977 15.0509 7.66492 14.0036 9.8439C12.3992 13.1818 11.7059 16.7527 11.5229 20.4267C11.4072 22.7467 11.6849 25.041 12.221 27.2988C13.1879 31.3714 14.9116 35.0337 18.0504 37.9172C18.1001 37.9627 18.1226 38.0393 18.1588 38.1418L19.9488 37.9852C19.9526 37.9849 19.9566 37.9862 19.9606 37.9861ZM42.9969 9.35807C44.3908 4.76145 46.343 1.62148 47.4146 0.120762C45.9025 0.0757005 44.3896 0.0478292 42.8766 0.0254653C41.9283 1.28736 39.7547 4.5343 38.2449 9.52613C36.4341 15.5132 35.2386 25.3016 39.7894 37.9844H44.4822C39.9513 25.2426 41.1664 15.3943 42.9969 9.35807ZM27.771 37.9842H32.2433H37.9664H39.2742C34.7435 25.2431 35.9557 15.394 37.786 9.35807C39.2121 4.65564 41.2242 1.47411 42.2781 0.0164528C41.9326 0.0112791 41.5869 0.00627181 41.2413 0.000931171C40.3125 -0.0134218 39.3821 0.142626 38.4514 0.160818C36.22 0.204378 33.9957 0.310521 31.7881 0.664506C31.2681 0.747953 30.7476 0.828732 30.2276 0.911846C29.1379 2.52956 27.4592 5.44505 26.225 9.5263C24.4142 15.513 23.2205 25.3019 27.771 37.9842ZM39.6182 38.4722H38.0755C37.4849 39.1403 33.2609 44.0906 31.1448 51.2461C29.1105 58.1246 28.6792 68.4795 37.8658 79.1616C38.4489 79.1192 39.0319 79.0773 39.6151 79.0398C41.0309 78.9486 42.4483 78.8722 43.8617 78.7519C44.4912 78.6983 45.1128 78.5526 45.8885 78.4239C45.6245 78.2231 45.4752 78.1023 45.3188 77.9915C43.0892 76.4113 41.3638 74.3851 40.0864 71.9829C37.5825 67.2743 36.666 62.2553 37.0719 56.9437C37.3 53.9596 37.9279 51.1002 39.0858 48.3478C40.4188 45.1798 42.2878 42.406 45.1266 40.4039C46.3306 39.5547 47.5975 38.9 48.942 38.5183L44.826 38.4722H39.6182ZM24.959 51.09C26.8937 44.5612 30.5598 39.8433 31.7095 38.4722H27.598H22.4102H20.0779C19.4833 39.1372 15.2074 44.0888 13.0419 51.2474C10.9898 58.0308 10.4884 68.1953 19.2834 78.7202C19.5101 78.7492 19.7365 78.7806 19.9635 78.8088C21.8092 79.0381 23.6717 79.133 25.5274 79.2792C25.932 79.3111 26.3398 79.3034 26.7461 79.3148C28.4179 79.3612 30.0911 79.4642 31.7619 79.4675C27.7418 74.7918 25.1979 69.7994 24.1981 64.6133C23.3489 60.2088 23.6048 55.6589 24.959 51.09ZM58.9663 0.972094C56.1426 0.718914 53.3221 0.396808 50.4928 0.243598C49.6639 0.198703 48.8344 0.164991 48.0044 0.137119C47.0169 1.47245 44.9229 4.6755 43.4559 9.52597C41.6451 15.5133 40.4508 25.3024 45.0025 37.9861L54.5435 38.0927C54.3838 37.9105 54.2688 37.7823 54.1704 37.6438C53.2782 36.3892 52.3068 35.1812 51.5218 33.8624C49.4422 30.369 49.0382 26.4511 48.8619 22.5012C48.7766 20.5931 49.0292 18.7015 49.2877 16.8118C49.7327 13.5583 50.7183 10.4856 52.3327 7.63004C53.6522 5.29618 55.3979 3.33883 57.7153 1.94025C58.1868 1.65569 58.6895 1.42254 59.2176 1.14483C59.0813 1.04887 59.0267 0.977601 58.9663 0.972094ZM25.7658 9.35807C26.9261 5.532 28.4723 2.71815 29.577 1.01465C27.8687 1.28703 26.1601 1.55806 24.4512 1.82693C23.4032 3.53243 22.0658 6.12364 21.0368 9.52613C19.2262 15.5132 18.0305 25.3016 22.5815 37.9844H27.2513C22.7202 25.2426 23.9353 15.3943 25.7658 9.35807Z" fill="url(#paint2_linear_0_1)"/>
<defs>
<linearGradient id="paint0_linear_0_1" x1="178.2" y1="57.8622" x2="419.8" y2="57.8622" gradientUnits="userSpaceOnUse">
<stop stop-color="#951111"/>
<stop offset="1" stop-color="#FFCE1E"/>
</linearGradient>
<linearGradient id="paint1_linear_0_1" x1="82.0269" y1="0.672363" x2="120.8" y2="0.672363" gradientUnits="userSpaceOnUse">
<stop stop-color="#DEB628"/>
<stop offset="1" stop-color="#FF1E27"/>
</linearGradient>
<linearGradient id="paint2_linear_0_1" x1="0" y1="0" x2="82.027" y2="0" gradientUnits="userSpaceOnUse">
<stop stop-color="#DEB628"/>
<stop offset="1" stop-color="#FF1E27"/>
</linearGradient>
</defs>
</svg>
